# xmcd CD database file
#
# Track frame offsets:
#	183
#	22940
#	45560
#	68863
#	92938
#	115248
#	136683
#	156545
#	183268
#	205395
#	225070
#	241765
#	268445
#	287905
#	302290
#
# Disc length: 4492 seconds
#
# Revision: 2
# Processed by: cddbd v1.5.2PL0 Copyright (c) Steve Scherf et al.
# Submitted via: CDex 1.51
#
DISCID=c8118a0f
DTITLE=Jodeci - Diary of a Mad Band
DYEAR=1993
DGENRE=R&B
TTITLE0=My Heart Belongs to U
TTITLE1=Cry for You
TTITLE2=Feenin'
TTITLE3=What about Us
TTITLE4=Ride and Slide
TTITLE5=Alone
TTITLE6=Lately
TTITLE7=You Got It
TTITLE8=Won't Wasted You
TTITLE9=In the Meanwhile
TTITLE10=Gimme All You Got
TTITLE11=Sweaty
TTITLE12=Let's Go Through the Motions
TTITLE13=Jodecidal Hotline
TTITLE14=Success
EXTD=YEAR: 1993
EXTT0=
EXTT1=
EXTT2=
EXTT3=
EXTT4=
EXTT5=
EXTT6=
EXTT7=
EXTT8=
EXTT9=
EXTT10=
EXTT11=
EXTT12=
EXTT13=
EXTT14=
PLAYORDER=
